<svg width="344" height="45" viewBox="0 0 344 45" fill="none" xmlns="http://www.w3.org/2000/svg">
<path d="M73.2758 43.6629V0.735889H90.2117C100.275 0.735889 106.534 6.43904 106.534 15.0858V15.2084C106.534 24.775 98.8637 29.8649 89.3526 29.8649H80.8233V43.6629H73.2758ZM80.8233 23.0579H89.598C95.3047 23.0579 98.8637 19.8691 98.8637 15.3924V15.2697C98.8637 10.1798 95.2433 7.60421 89.598 7.60421H80.8233V23.0579Z" fill="black"/>
<path d="M150.099 44.3988C136.906 44.3988 127.702 34.4029 127.702 22.322V22.1994C127.702 10.1798 137.029 0 150.222 0C163.414 0 172.619 9.99586 172.619 22.0767V22.1994C172.619 34.2189 163.292 44.3988 150.099 44.3988ZM150.222 37.4078C158.751 37.4078 164.703 30.6621 164.703 22.322V22.1994C164.703 13.8593 158.689 6.99096 150.099 6.99096C141.57 6.99096 135.617 13.7366 135.617 22.0767V22.1994C135.617 30.5395 141.631 37.4078 150.222 37.4078Z" fill="black"/>
<path d="M197.078 43.6629V0.735889H204.625V36.7946H227.207V43.6629H197.078Z" fill="black"/>
<path d="M250.35 43.6629V0.735889H257.897V36.7946H280.479V43.6629H250.35Z" fill="black"/>
<path d="M321.48 44.3988C308.287 44.3988 299.083 34.4029 299.083 22.322V22.1994C299.083 10.1798 308.41 0 321.603 0C334.796 0 344 9.99586 344 22.0767V22.1994C344 34.2189 334.673 44.3988 321.48 44.3988ZM321.603 37.4078C330.132 37.4078 336.084 30.6621 336.084 22.322V22.1994C336.084 13.8593 330.071 6.99096 321.48 6.99096C312.951 6.99096 306.999 13.7366 306.999 22.0767V22.1994C306.999 30.5395 313.012 37.4078 321.603 37.4078Z" fill="black"/>
<path d="M0 43.6768H8.86006L23.1018 17.1517L37.3435 43.6768H46.2036L23.1018 0.721924L0 43.6768Z" fill="black"/>
</svg>
