<svg width="16" height="14" viewBox="0 0 16 14" fill="none" xmlns="http://www.w3.org/2000/svg">
<path d="M15.1079 6.71597C15.1079 6.96266 15.009 7.19922 14.8332 7.37363L9.20822 12.9549C9.03141 13.1243 8.79459 13.2181 8.54878 13.2159C8.30297 13.2138 8.06784 13.116 7.89402 12.9435C7.7202 12.7711 7.6216 12.5377 7.61947 12.2939C7.61733 12.05 7.71182 11.815 7.8826 11.6395L11.9073 7.64618L1.04541 7.64618C0.79677 7.64618 0.558313 7.54817 0.382497 7.37373C0.206682 7.19928 0.107911 6.96268 0.107911 6.71597C0.107911 6.46927 0.206682 6.23267 0.382498 6.05822C0.558313 5.88377 0.79677 5.78577 1.04541 5.78577L11.9073 5.78577L7.8826 1.7924C7.71183 1.61696 7.61733 1.38199 7.61947 1.13809C7.6216 0.894198 7.7202 0.660891 7.89402 0.488423C8.06784 0.315956 8.30298 0.218127 8.54878 0.216008C8.79459 0.213888 9.03141 0.307648 9.20822 0.477092L14.8332 6.05832C15.009 6.23273 15.1079 6.46929 15.1079 6.71597Z" fill="white"/>
</svg>
