<?xml version="1.0" standalone="no"?>
<!DOCTYPE svg PUBLIC "-//W3C//DTD SVG 20010904//EN"
 "http://www.w3.org/TR/2001/REC-SVG-20010904/DTD/svg10.dtd">
<svg version="1.0" xmlns="http://www.w3.org/2000/svg"
 width="500.000000pt" height="500.000000pt" viewBox="0 0 500.000000 500.000000"
 preserveAspectRatio="xMidYMid meet">
<metadata>
Created by potrace 1.11, written by Peter Selinger 2001-2013
</metadata>
<g transform="translate(0.000000,500.000000) scale(0.100000,-0.100000)"
fill="#000000" stroke="none">
<path d="M750 3230 c-199 -35 -376 -191 -440 -389 -19 -60 -22 -87 -19 -179 4
-104 6 -112 46 -194 79 -158 211 -255 381 -280 250 -37 517 131 596 375 5 16
68 17 1140 17 l1134 0 12 -36 c20 -60 109 -182 168 -230 110 -90 215 -128 352
-128 138 0 234 35 327 118 108 97 163 231 163 394 0 120 -22 201 -78 288 -110
170 -336 275 -532 246 -140 -20 -258 -89 -334 -196 -55 -77 -83 -146 -97 -242
l-11 -74 -1109 0 -1108 0 -6 48 c-12 86 -48 194 -85 251 -107 165 -299 246
-500 211z"/>
</g>
</svg>
